<svg xmlns="http://www.w3.org/2000/svg" viewBox="0 0 128 128"><path fill="#68217A" d="M117.5 33.5l.3-.2c-.6-1.1-1.5-2.1-2.4-2.6L67.1 2.9c-.8-.5-1.9-.7-3.1-.7-1.2 0-2.3.3-3.1.7l-48 27.9c-1.7 1-2.9 3.5-2.9 5.4v55.7c0 1.1.2 2.3.9 3.4l-.2.1c.5.8 1.2 1.5 1.9 1.9l48.2 27.9c.8.5 1.9.7 3.1.7 1.2 0 2.3-.3 3.1-.7l48-27.9c1.7-1 2.9-3.5 2.9-5.4V36.1c.1-.8 0-1.7-.4-2.6zM64 88.5c-13.5 0-24.5-11-24.5-24.5s11-24.5 24.5-24.5c9.1 0 17.1 5 21.3 12.5l-13 7.5c-1.8-3.5-5.5-6-9.8-6-6.3 0-11.5 5.2-11.5 11.5s5.2 11.5 11.5 11.5c4.3 0 8-2.5 9.8-6l13 7.5C81.1 83.5 73.1 88.5 64 88.5z"/><path fill="#68217A" d="M95 57.5h-3v-3h-4v3h-3v4h3v3h4v-3h3zm12 0h-3v-3h-4v3h-3v4h3v3h4v-3h3z"/></svg>