<svg xmlns="http://www.w3.org/2000/svg" viewBox="0 0 128 128"><path fill="#512BD4" d="M61.195 0h4.953c12.918.535 25.688 4.89 36.043 12.676 9.809 7.289 17.473 17.437 21.727 28.932 4.062 10.818 5.16 22.676 3.316 34.078-1.86 11.727-7.27 22.836-15.176 31.64-7.5 8.376-17.199 14.88-27.898 18.442-11.57 3.875-24.203 4.535-36.07 1.86C36.5 125.237 25.676 120 17.078 112.367 8.266 104.546 2.012 94.16.207 82.86c-.117-.527-.168-1.07-.207-1.605v-4.953c.56-13.207 5.2-26.27 13.254-36.86C21.34 28.86 33.035 21.035 46.1 17.668c-.832 1.852-1.578 3.746-2.27 5.672-8.835 3.351-16.89 8.86-23.156 15.98-6.645 7.531-11.344 16.762-13.41 26.582-2.117 9.921-1.496 20.39 1.73 30.031 3.094 9.399 8.862 17.88 16.364 24.168 7.593 6.414 16.8 10.828 26.527 12.93 10.652 2.336 21.878 1.652 32.16-1.808 9.946-3.32 18.86-9.27 25.598-17.098 6.937-7.976 11.602-17.793 13.293-28.14 1.871-11.09 1.062-22.7-2.504-33.348-3.36-10.07-9.5-19.16-17.543-25.988C93.883 18.016 82.617 13.156 70.97 12.14c-3.199-.293-6.418-.293-9.621-.082-.535-4.078-.918-8.14-1.16-12.203.336.05.672.094 1.007.144z"/><path fill="#512BD4" d="M48.016 11.656c-.04.52-.078 1.04-.118 1.563-1.258.156-2.52.39-3.727.742-4.504 1.094-8.782 2.973-12.727 5.398l-.457-.676c-1.293-1.844-2.555-3.71-3.86-5.546 5.098-3.2 10.73-5.61 16.617-7.074 1.399-.336 2.813-.61 4.227-.843.012 2.144.027 4.29.045 6.436z"/></svg>