<svg xmlns="http://www.w3.org/2000/svg" viewBox="0 0 128 128"><path fill="#F7DF1E" d="M2 1v125h125V1H2zm66.119 106.513c-1.845 3.749-5.367 6.212-9.448 7.401-6.162 1.640-12.524.588-17.796-3.017-2.18-1.508-3.94-3.457-5.15-5.879l8.79-5.317c1.11 2.87 2.87 4.39 5.87 4.39 3.18 0 5.21-2.52 5.21-6.17V68.2h10.63v33.7c0 2.15-.21 4.39-1.06 6.36l2.95.253zm32.09-1.313c-2.17 5.21-7.56 8.51-14.03 8.51-6.53 0-12.56-2.89-16.13-8.09l8.51-5.37c1.85 3.18 4.69 5.15 8.25 5.15 3.46 0 5.74-1.74 5.74-4.28 0-2.97-2.3-4.03-6.17-5.77l-2.12-.91c-6.11-2.6-10.17-5.87-10.17-12.77 0-6.35 4.84-11.19 12.39-11.19 5.38 0 9.24 1.87 12.03 6.79l-8.19 5.41c-1.37-2.46-2.85-3.42-5.15-3.42-2.35 0-3.84 1.49-3.84 3.42 0 2.4 1.49 3.37 4.94 4.85l2.12.91c7.19 3.09 11.25 6.23 11.25 13.3 0 7.62-5.99 11.8-14.03 11.8l.57-2.53z"/></svg>