<svg xmlns="http://www.w3.org/2000/svg" viewBox="0 0 128 128"><path fill="#CC2927" d="M96.7 27.5c-4.1-2.6-9.4-4-15.9-4.3-3.3-.1-6.8.1-10.3.7-2.4-2.5-5.3-4.6-8.5-6.2-7.1-3.5-15.2-4.3-22.8-2.3C32 17.4 26 21.4 22.2 27.2c-2.8 4.3-4.3 9.2-4.6 14.2-.4 6.3 1.2 12.6 4.5 18 3.1 5.1 7.7 9.4 13.1 12.3-1.2 4.4-1.6 9-1.2 13.5.6 7.1 3.3 13.8 7.8 19.3 5.1 6.2 12.1 10.5 20 12.2 3.3.7 6.7 1 10.1.9 7.7-.4 15-3.3 20.8-8.3 5.3-4.6 9-10.8 10.5-17.7 1-4.7 1-9.5 0-14.2 3.9-2.7 7.1-6.3 9.3-10.5 3.3-6.3 4.3-13.5 2.8-20.4-1.3-6.1-4.6-11.6-9.4-15.5-2.8-2.3-6-4.1-9.2-3.5zm-8.1 75c-4.4 4.1-10.2 6.4-16.3 6.6-2.8.1-5.7-.2-8.4-.9-6.4-1.5-12-5-15.8-10.1-3.5-4.7-5.5-10.3-5.9-16.1-.2-3.3.2-6.7 1.2-9.9 2.8 1.1 5.7 1.9 8.7 2.3 6.7.9 13.5.2 19.9-2.1 5.3-1.9 10.1-5 14-9.1.7 3.7.7 7.5 0 11.2-1.2 5.5-4.1 10.5-8.3 14.2 1.5.6 3 1.3 4.4 2.1 3.1 1.8 5.8 4.3 7.8 7.3-1.8 1.7-1 3.3-1.3 4.5z"/></svg>