<svg xmlns="http://www.w3.org/2000/svg" viewBox="0 0 128 128"><path fill="#3178C6" d="M2 63.91v62.5h125v-125H2zm100.73-5a15.56 15.56 0 017.82 4.5 20.58 20.58 0 013 4.24c.04.08-5.24 3.65-8.44 5.74-.12.08-.6-.44-1.13-1.23a6.56 6.56 0 00-5.48-3.28c-3.56-.25-5.84 1.65-5.82 4.82a4.38 4.38 0 00.49 2.29c.67 1.34 1.93 2.15 5.93 3.82 7.38 3.08 10.54 5.11 12.58 8.09a13.39 13.39 0 011.61 10.1 14.15 14.15 0 01-4.74 8.54c-2.2 1.83-5.11 3.1-8.47 3.67a29.13 29.13 0 01-7.15 0 19.54 19.54 0 01-10.32-5 19.26 19.26 0 01-3.56-5.26c.15-.12 2.17-1.4 4.48-2.83l3.76-2.3.79 1.18a12.39 12.39 0 004.67 4.42 11.1 11.1 0 008.59-.13 4.58 4.58 0 002.47-4.12 4.17 4.17 0 00-.64-2.48c-.87-1.27-2.65-2.33-7.17-4.28-5.18-2.23-7.42-3.61-9.57-5.89a13 13 0 01-2.69-5.14 20.63 20.63 0 01-.14-6.4 12.58 12.58 0 014.89-8.37c2.44-1.83 5.32-2.94 8.87-3.41a25.31 25.31 0 017.61.4z"/><path fill="#3178C6" d="M49.47 67h11.53v37.93h-8.78V67H40.7v-7.7h21.56v7.7z"/></svg>